<?xml version="1.0" encoding="utf-8"?>
<svg xmlns="http://www.w3.org/2000/svg" version="1.1" x="0px" y="0px" xml:space="preserve" width="39.882" height="39.761" viewBox="4.413 -43.446 39.882 39.761">
  <defs>
    <path id="a" d="M0 0h25.88v25.88H0z"/>
  </defs>
  <clipPath id="b">
    <use xlink:href="#a" overflow="visible"/>
  </clipPath>
  <path fill="none" stroke="#000" stroke-width=".43" d="M5.78 22.65l-3.1 2.02M0 21.1l1.16.5M9.4 22.44l-2.16-2.36M8.3 17.43l2.83-1.4M9.2 13.7l2.05-2.6M4.48 13.6l2.24 1.95M1.9 17L.4 14.02M10.7 20.18l3.42 1.4M4.54 17.4l-.66 3.2M5.8 9.6l-3.13 1.94M1.17 8.42L0 7.94M9.4 9.26L7.26 6.9M11.1 2.85l-2.82 1.4M4.45.4L6.7 2.32M.42.86l1.5 2.98M10.67 7l3.43 1.4M4.54 4.2l-.66 3.17M18.7 22.67l-3.08 2.02M22.36 22.46L20.2 20.1M21.25 17.43l2.82-1.4M22.14 13.7l2.06-2.6M17.4 13.58l2.24 1.95M13.34 14l1.5 3M17.48 17.38l-.66 3.18M18.72 9.45l-3.07 2.04M22.37 9.27L20.2 6.9M21.23 4.24l2.82-1.4M17.4.4l2.24 1.94M13.34.8l1.5 3M17.47 4.2l-.66 3.2M23.63 20.18l2.25.92M23.63 7.02l2.25.9M9.2.52L9.6 0M22.54 0l-.4.53M11.26 23.76l-1.68 2.12M24.2 23.77l-1.68 2.1" clip-path="url(#b)"/>
	<g>
		<rect x="4.413" y="-43.446" style="fill:none;" width="39.882" height="39.761"/>
		<path d="M2.477-1.634C2.211-2.335,2.461-2.925,2.742-3.307c0.874-1.187,1.277-1.738,1.777-1.988s0.556-0.012,1.306,0.488    s0.696,0.562,1.113,1.228c0.417,0.667-0.114,1.291-0.613,1.772C5.731-1.233,3.481,0.74,3.098,0    C2.656-0.85,2.598-1.317,2.477-1.634z"/>
		<path d="M42.259-1.634c-0.267-0.701-0.017-1.291,0.265-1.673c0.875-1.187,1.277-1.738,1.777-1.988s0.557-0.012,1.307,0.488    s0.696,0.562,1.113,1.228c0.416,0.667-0.115,1.291-0.613,1.772C45.514-1.233,43.264,0.74,42.879,0    C42.438-0.85,42.379-1.317,42.259-1.634z"/>
		<path d="M42.259-41.431c-0.267-0.701-0.017-1.291,0.265-1.673c0.875-1.188,1.277-1.737,1.777-1.987s0.557-0.013,1.307,0.487    s0.696,0.562,1.113,1.229c0.416,0.666-0.115,1.291-0.613,1.771c-0.594,0.572-2.844,2.547-3.229,1.808    C42.438-40.646,42.379-41.113,42.259-41.431z"/>
		<path d="M2.451-41.431c-0.266-0.701-0.016-1.291,0.266-1.673c0.875-1.188,1.277-1.737,1.777-1.987s0.557-0.013,1.307,0.487    s0.695,0.562,1.113,1.229c0.416,0.666-0.115,1.291-0.613,1.771c-0.594,0.572-2.844,2.547-3.228,1.808    C2.631-40.646,2.572-41.113,2.451-41.431z"/>
		<path d="M8.958-3.602c0.241,0.361,0.938,1.067,1.391,1.002c0.452-0.063,1.228-0.841,1.487-1.002    c0.259-0.161,0.582-2.232,0.389-2.457c-0.195-0.227-0.971-0.453-1.585-0.421C10.025-6.448,8.667-6.675,8.57-5.866    C8.473-5.058,8.699-3.991,8.958-3.602z"/>
		<path d="M17.69-3.57c0.037,0.201,0.162,1.196,0.614,1.196c0.452,0,1.907-0.582,2.523-1.228c0.614-0.647,0.97-1.455,0.42-1.939    c-0.55-0.486-0.938-1.263-1.714-0.745C18.756-5.769,17.592-4.088,17.69-3.57z"/>
		<path d="M24.945-3.56c0.149,0.365,0.688,1.953,2.467-0.02c0.823-0.914,0.558-2.157,0.396-2.577c-0.162-0.421-0.55-0.776-1.1-0.55    C26.159-6.481,24.59-4.434,24.945-3.56z"/>
		<path d="M30.97-3.56c0.269,0.322,0.831,0.956,2.352,0.018c1.52-0.937,1.321-1.003,1.385-1.585    c0.065-0.583-0.091-1.536-0.905-1.229c-0.259,0.097-2.546,0.745-3.29,1.456C29.768-4.189,30.646-3.949,30.97-3.56z"/>
		<path d="M37.343-3.588c0.224,0.325,0.848,1.436,1.333,1.403c0.485-0.031,1.904-0.304,2.066-1.403    c0.162-1.1,1.632-3.921-1.735-2.99c-0.563,0.156-1.181,0.106-1.568,0.656S36.631-4.622,37.343-3.588z"/>
		<path d="M24.945-43.421c0.149,0.364,0.688,1.952,2.467-0.021c0.823-0.912,0.558-2.156,0.396-2.576    c-0.162-0.421-0.55-0.776-1.1-0.55C26.159-46.341,24.59-44.295,24.945-43.421z"/>
		<path d="M30.97-43.421c0.269,0.321,0.831,0.956,2.352,0.019c1.52-0.938,1.321-1.003,1.385-1.585    c0.065-0.583-0.091-1.536-0.905-1.229c-0.259,0.097-2.546,0.745-3.29,1.456C29.768-44.05,30.646-43.809,30.97-43.421z"/>
		<path d="M37.343-43.448c0.224,0.325,0.848,1.436,1.333,1.403c0.485-0.031,1.904-0.304,2.066-1.403    c0.162-1.1,1.632-3.921-1.735-2.99c-0.563,0.156-1.181,0.106-1.568,0.656S36.631-44.482,37.343-43.448z"/>
		<path d="M8.958-43.392c0.241,0.361,0.938,1.066,1.391,1.002c0.452-0.065,1.228-0.841,1.487-1.002    c0.259-0.162,0.582-2.231,0.389-2.458c-0.195-0.227-0.971-0.453-1.585-0.421c-0.614,0.033-1.973-0.194-2.069,0.614    C8.473-44.847,8.699-43.78,8.958-43.392z"/>
		<path d="M17.69-43.36c0.037,0.202,0.162,1.197,0.614,1.197c0.452,0,1.907-0.582,2.523-1.229c0.614-0.646,0.97-1.455,0.42-1.94    c-0.55-0.485-0.938-1.262-1.714-0.744C18.756-45.559,17.592-43.878,17.69-43.36z"/>
		<path d="M33.59-9.801c0.149,0.462,1.376,2.292,1.887,2.327c0.511,0.036,1.622-0.864,1.992-1.252    c0.37-0.388,0.987-1.763,0.123-1.921c-0.864-0.158-2.31-0.67-2.697-0.512C34.507-10.999,33.413-10.347,33.59-9.801z"/>
		<path d="M44.255-12.639c0.185-0.092,1.093,0,1.022,0.811c-0.07,0.812-0.757,1.394-0.969,1.569c-0.212,0.176-1.921,1.78-2.345,1.71    c-0.424-0.07-2.046-0.986-2.151-1.639c-0.105-0.653,0.159-1.799,0.882-1.692c0.723,0.104,2.222,0.104,2.609-0.054    C43.691-12.092,44.008-12.516,44.255-12.639z"/>
		<path d="M4.442-12.639c0.185-0.092,1.093,0,1.022,0.811c-0.07,0.812-0.757,1.394-0.969,1.569c-0.212,0.176-1.921,1.78-2.345,1.71    C1.727-8.619,0.105-9.535,0-10.188c-0.105-0.653,0.159-1.799,0.882-1.692c0.723,0.104,2.222,0.104,2.609-0.054    C3.879-12.092,4.195-12.516,4.442-12.639z"/>
		<path d="M30.846-9.369c0.925,0.088,2,0.688,1.562,1.437s-2.562,1.75-2.812,1.062S29.533-9.494,30.846-9.369z"/>
		<path d="M24.596-8.994c0.628,0.628,0.938,1.562,1.875,0.688s2.144-2.289,1.644-2.977s-1.831-0.023-2.456,0.289    S24.096-9.494,24.596-8.994z"/>
		<path d="M29.346-11.307c-0.54-0.54-1.125-2.688,0.375-3s2.688-0.375,3.188,0.312s0.875,1.5,0.062,2.125    S30.221-10.432,29.346-11.307z"/>
		<path d="M34.346-15.682c0.189-0.76,1.312-1.75,2.125-1.375s3.375,2.688,2.938,3.188s-1.5,1-2.438,0.938s-1.375-0.125-1.688-0.75    S34.221-15.182,34.346-15.682z"/>
		<path d="M40.283-16.119c-0.125,0.563,0.5-2.125,1.188-1.688s2.625,2.688,2.312,3.438s-0.875,1.312-1.5,0.875    s-1.562-1.188-1.812-1.812S40.283-16.119,40.283-16.119z"/>
		<path d="M44.283-19.494c0.432,0.096,1.062,0.312,1.375,1s0.25,1.562-0.25,1.5s-0.625-0.438-1.125-0.5s-0.938-0.188-1.125-0.812    S43.721-19.619,44.283-19.494z"/>
		<path d="M17.283-33.994c0.432,0.096,1.062,0.312,1.375,1s0.25,1.562-0.25,1.5s-0.625-0.438-1.125-0.5    c-0.5-0.062-0.938-0.187-1.125-0.812C15.971-33.432,16.721-34.119,17.283-33.994z"/>
		<path d="M4.465-19.494c0.432,0.096,1.062,0.312,1.375,1s0.25,1.562-0.25,1.5s-0.625-0.438-1.125-0.5s-0.938-0.188-1.125-0.812    S3.902-19.619,4.465-19.494z"/>
		<path d="M7.033-9.744c0.75,0.5,0.688,0.375,0.5,1.25s-0.562,2.25-1.25,2S5.096-6.807,5.096-7.557s0.625-1.812,1.188-2.125    S7.033-9.744,7.033-9.744z"/>
		<path d="M10.596-14.682c-0.438-0.75-1.188-1.938-1.938-1.813s-1.813,3.875-1.188,4.563s1.375,0.688,2.188,0.562    s1.75-0.812,1.562-1.562S10.596-14.682,10.596-14.682z"/>
		<path d="M9.783-9.932c0.585-0.474,2.812-0.875,3.25-0.375s-1.875,2.437-2.625,2.5S8.471-8.869,9.783-9.932z"/>
		<path d="M14.783-9.244c0.873-0.437,1.062-1.125,1.75-0.688c0.688,0.438,1.562,1.75,1.125,2.75s-0.625,2.688-1.75,2.25    S13.533-8.619,14.783-9.244z"/>
		<path d="M18.721-10.494c0.161,0.644,1.688,1.375,3,0.75s1.625-1.5,1.375-2.25s-2.25-1.125-3-0.625S18.596-10.994,18.721-10.494z"/>
		<path d="M13.721-12.432c0.301,0.602,0.562,0.625,2.188,0.25s3.062-0.812,1.875-1.75s-1.5-1.062-2.312-0.5    C14.658-13.869,13.471-12.932,13.721-12.432z"/>
		<path d="M24.971-19.369c0.615,0.273,1.188,1.875,1.438,2.812c0.25,0.938,0.75,1.813,0.125,2.625s-1.25,1.125-2,0.625    s-1.188-1.125-1.188-2.562s0-1.938,0.625-2.688S24.408-19.619,24.971-19.369z"/>
		<path d="M28.033-17.369c-0.345-0.826-0.062-1.438,1.25-1.438s2.188-0.375,2.75-0.562s1.25-0.312,1.562,0.125s0.312,2-1,2.375    S28.346-16.619,28.033-17.369z"/>
		<path d="M39.908-23.244c0.258-0.772,0.125-1.125,1.25-0.75s1.5-0.25,1.75,0.625s0,1.875-0.312,2.5s-1.062,1.125-1.5,0.312    S39.721-22.682,39.908-23.244z"/>
		<path d="M40.471-26.244c0.744,0.496,1.625,1,2.125,0.25s1-2.688,0.5-3.562s-0.625-1.438-1.375-1.5s-1.625,1.125-1.625,2.125    S40.096-26.494,40.471-26.244z"/>
		<path d="M35.471-21.494c0.601-0.929,1.5-1.438,1.938-0.938s2.375,2.5,2.188,3.312s-0.375,1.312-1.312,1    S34.783-20.432,35.471-21.494z"/>
		<path d="M6.971-19.869c0.674-0.877,1.375-2.062,2.313-2s0.625,1.438,0.625,2.312s-0.062,2-0.625,1.875S6.346-19.057,6.971-19.869z    "/>
		<path d="M11.346-16.682c0.5,1,1.25,1.813,1.688,1.813s1.75-1.438,1.938-2.188s0.125-1.5-0.938-2.062s-1.5-1.125-2.062-0.625    S11.158-17.057,11.346-16.682z"/>
		<path d="M17.158-17.557c0.056-0.727,0.5-1.562,1.938-1.5s2.75,0.375,2.812,1.25s-0.75,2.063-2,2.25S17.096-16.744,17.158-17.557z"/>
		<path d="M21.283-7.494c-0.488-0.488-0.312-1.25,0.688-0.937s2.414,0.278,2.155,1.151C23.306-4.512,21.783-6.994,21.283-7.494z"/>
		<path d="M16.096-24.682c0.532,0.532,0.688,0.875,1.75-0.125s1.938-1.5,1.25-2s-0.438-0.562-1.125,0.062    S15.846-24.932,16.096-24.682z"/>
		<path d="M5.408-26.807c0.147-0.838,0-0.938,1.125-0.875s2.25,0.688,2.563,1.188s-1.062,2.906-1.688,2.906    C6.535-23.588,4.023-18.871,5.408-26.807z"/>
		<path d="M13.096-25.682c0.676,0,1.812,1.312,1.062,2.062s-2.25,1.688-3.188,0.438s-0.375-2.312,0.438-3.125    S12.783-25.682,13.096-25.682z"/>
		<path d="M14.596-20.869c-0.135-0.677-0.312-1.312,0.875-1.5s1.312-0.375,1.75,0s1.062,1,0.125,1.5S14.721-20.244,14.596-20.869z"/>
		<path d="M20.158-24.057c0.628-0.023,3.938,1.312,4,1.938s-0.5,0.938-1.438,1.375s-1.75,0.25-2.625-0.438    S18.471-23.994,20.158-24.057z"/>
		<path d="M27.658-25.057c0.822,0,0.875,0.188,1,1.688s0.375,3.125-0.25,3.125s-1.438-0.75-1.75-1.5s-1.904-1.144-1.467-1.769    S27.346-25.057,27.658-25.057z"/>
		<path d="M31.846-24.307c0.76,0.217,2,0.938,2,1.75s-0.875,1.312-1.688,1.562s-1.188,0.125-1.5-0.438S30.971-24.557,31.846-24.307z    "/>
		<path d="M33.971-26.119c0.38-0.434,1.812-1.438,2.688-1.562s1.5,0,1.625,0.688s-0.625,2.688-1.375,2.688    S33.533-25.619,33.971-26.119z"/>
		<path d="M30.221-31.119c1.511,0.813,3.125,2.625,2.5,3.438s-3.5,2.188-3.5,1.25S29.408-31.557,30.221-31.119z"/>
		<path d="M35.971-32.744c0.687-0.068,2.5,0.937,2.375,1.687s-1.312,1.5-2,1.562s-1.938,0.062-2.25-0.688    S35.346-32.682,35.971-32.744z"/>
		<path d="M38.596-35.182c0.768-0.154,1.875-0.75,2.562-0.5s1.281,0.984,1.031,1.672s-0.969,1.266-1.906,1.141s-2-0.625-2.188-1    S37.971-35.057,38.596-35.182z"/>
		<path d="M42.096-38.432c0.625,0.062,1.688,0.375,1.5,1.125s-1.5,0.938-2.312,0.562s-1.5-0.375-1-1.188    S41.471-38.494,42.096-38.432z"/>
		<path d="M4.471-33.869c-0.594,0.25-0.687,1.328,0,2.016s1.562,2.234,2.375,2.172s1.375-0.875,1.438-1.875    c0.062-1,0.375-2.375-0.875-2.687S4.471-33.869,4.471-33.869z"/>
		<path d="M44.299-33.869c-0.594,0.25-1.406,0.359,0,2.016c0.629,0.741,1.562,2.234,2.375,2.172s1.375-0.875,1.438-1.875    c0.062-1,0.375-2.375-0.875-2.687S44.299-33.869,44.299-33.869z"/>
		<path d="M9.611-29.135c-0.074-0.37,0.984-1.969,1.438-1.797c0.453,0.172,2.141,1.594,2.047,2c-0.094,0.406-1.938,1.312-2.312,1.25    S9.674-28.822,9.611-29.135z"/>
		<path d="M15.518-31.213c0.322,0.245,1.984,1.328,1.812,1.984c-0.172,0.656-1.281,2-1.594,1.875    c-0.312-0.125-1.344-1.547-1.203-2.375S15.127-31.51,15.518-31.213z"/>
		<path d="M11.908-37.182c0.616-0.176,1.797,1.844,2.109,2.375c0.312,0.531,0.109,1.844-0.562,2.141    c-0.672,0.297-2.266,0.281-2.688-0.547c-0.422-0.828-0.531-2.219-0.094-2.641C11.111-36.275,11.799-37.15,11.908-37.182z"/>
		<path d="M20.971-28.182c0.824-0.206,2.125-0.062,2.938,1.062s1.438,1.625,0.812,2.062s-1.625,0.25-2.625-0.375    S19.971-27.932,20.971-28.182z"/>
		<path d="M24.846-32.869c0.625-0.375,1.251-0.562,1.75-0.125c0.5,0.438,1.375,2.5,1.125,3.312s-1.125,2.438-1.688,1.688    S23.596-32.119,24.846-32.869z"/>
		<path d="M31.221-34.994c0.625-1.125,3.157-2.724,3.97-2.286s0.843,1.661,0.03,2.724s-3.375,2.937-3.75,1.75    C31.096-33.994,31.221-34.994,31.221-34.994z"/>
		<path d="M37.533-40.744c0.725-0.229,2.188-0.375,2.375,0.25s0,1.812-0.938,2.625s-1.875,1.562-2,0.75S36.346-40.369,37.533-40.744    z"/>
		<path d="M35.033-41.869c-0.465-0.418-0.938-0.25-1.938,0.5s-2.375,2.25-1.75,2.875s1.188,0.688,2.25,0    S35.658-41.307,35.033-41.869z"/>
		<path d="M26.221-40.807c0.625-0.562,2.625-0.625,3.125,0s0.438,1.562-0.25,2.375s-1.562-0.75-2.438-0.875s-1.75-0.125-1.125-0.812    S26.221-40.807,26.221-40.807z"/>
		<path d="M28.533-36.432c0.691-0.173,1.125,0,1.312,0.688s0.375,1.75-0.25,2.125s-1.312,0.188-1.5-0.688    S27.783-36.244,28.533-36.432z"/>
		<path d="M19.971-30.182c-0.91-0.455-0.875-0.562,0.125-1.312c1-0.75,1.5-1.812,2-1.062c0.5,0.75,0.25,1.5-0.375,2.125    S20.596-29.869,19.971-30.182z"/>
		<path d="M22.221-34.619c-1.127-1.127,0.5-1.562,1.625-2.125s1.062-1.562,1.75-0.938s1.623,2.911,0.25,2.812    C24.971-34.932,22.846-33.994,22.221-34.619z"/>
		<path d="M18.846-38.994c-0.6-0.337,0.492-0.813,1.688-1.938c1.062-1,1.688-1.75,2.25-1.25s0.658,3.487-0.592,4.362    S19.846-38.432,18.846-38.994z"/>
		<path d="M16.846-35.932c0.801-0.701,0.125-1.5,1.438-1.062s2.438,1.125,2,2s-1.188,0.812-1.812,0.062S16.346-35.494,16.846-35.932    z"/>
		<path d="M11.533-39.744c-0.055-0.811,0.579-0.58,1.438-1.5c0.875-0.938,1.875-1.812,2.25-1.375s1.75,2.625,1.125,3.312    c-0.625,0.688-0.6,3.684-1.384,2.795C13.809-37.819,11.596-38.807,11.533-39.744z"/>
		<path d="M6.533-36.182c-0.691-0.634-1.375-1.625-0.688-2.688s1.5-2.625,2.125-2.188s2,1.188,1.313,2.375    S7.283-35.494,6.533-36.182z"/>
	</g>
	<g>
		<rect x="0" y="-53.584" style="fill:none;" width="53.584" height="53.584"/>
		<line style="fill:none;stroke:#000000;stroke-width:0.3;" x1="3.776" y1="-52.32" x2="0" y2="-52.32"/>
		<line style="fill:none;stroke:#000000;stroke-width:0.3;" x1="6.357" y1="-52.32" x2="12.726" y2="-52.32"/>
		<line style="fill:none;stroke:#000000;stroke-width:0.3;" x1="15.273" y1="-52.32" x2="21.643" y2="-52.32"/>
		<line style="fill:none;stroke:#000000;stroke-width:0.3;" x1="24.19" y1="-52.32" x2="30.559" y2="-52.32"/>
		<line style="fill:none;stroke:#000000;stroke-width:0.3;" x1="33.106" y1="-52.32" x2="39.476" y2="-52.32"/>
		<line style="fill:none;stroke:#000000;stroke-width:0.3;" x1="42.023" y1="-52.32" x2="48.393" y2="-52.32"/>
		<line style="fill:none;stroke:#000000;stroke-width:0.3;" x1="53.584" y1="-52.32" x2="50.939" y2="-52.32"/>
		<line style="fill:none;stroke:#000000;stroke-width:0.3;" x1="8.108" y1="-49.186" x2="1.739" y2="-49.186"/>
		<line style="fill:none;stroke:#000000;stroke-width:0.3;" x1="17.024" y1="-49.186" x2="10.655" y2="-49.186"/>
		<line style="fill:none;stroke:#000000;stroke-width:0.3;" x1="25.941" y1="-49.186" x2="19.572" y2="-49.186"/>
		<line style="fill:none;stroke:#000000;stroke-width:0.3;" x1="34.858" y1="-49.186" x2="28.489" y2="-49.186"/>
		<line style="fill:none;stroke:#000000;stroke-width:0.3;" x1="43.774" y1="-49.186" x2="37.405" y2="-49.186"/>
		<line style="fill:none;stroke:#000000;stroke-width:0.3;" x1="46.322" y1="-49.186" x2="52.691" y2="-49.186"/>
		<line style="fill:none;stroke:#000000;stroke-width:0.3;" x1="0" y1="-46.216" x2="2.024" y2="-46.216"/>
		<line style="fill:none;stroke:#000000;stroke-width:0.3;" x1="10.975" y1="-46.216" x2="4.606" y2="-46.216"/>
		<line style="fill:none;stroke:#000000;stroke-width:0.3;" x1="13.521" y1="-46.216" x2="19.891" y2="-46.216"/>
		<line style="fill:none;stroke:#000000;stroke-width:0.3;" x1="22.438" y1="-46.216" x2="28.808" y2="-46.216"/>
		<line style="fill:none;stroke:#000000;stroke-width:0.3;" x1="31.355" y1="-46.216" x2="37.724" y2="-46.216"/>
		<line style="fill:none;stroke:#000000;stroke-width:0.3;" x1="40.271" y1="-46.216" x2="46.641" y2="-46.216"/>
		<line style="fill:none;stroke:#000000;stroke-width:0.3;" x1="49.188" y1="-46.216" x2="53.584" y2="-46.216"/>
		<line style="fill:none;stroke:#000000;stroke-width:0.3;" x1="7.312" y1="-43.411" x2="0.943" y2="-43.411"/>
		<line style="fill:none;stroke:#000000;stroke-width:0.3;" x1="16.229" y1="-43.411" x2="9.859" y2="-43.411"/>
		<line style="fill:none;stroke:#000000;stroke-width:0.3;" x1="25.146" y1="-43.411" x2="18.776" y2="-43.411"/>
		<line style="fill:none;stroke:#000000;stroke-width:0.3;" x1="34.062" y1="-43.411" x2="27.692" y2="-43.411"/>
		<line style="fill:none;stroke:#000000;stroke-width:0.3;" x1="42.979" y1="-43.411" x2="36.609" y2="-43.411"/>
		<line style="fill:none;stroke:#000000;stroke-width:0.3;" x1="45.526" y1="-43.411" x2="51.896" y2="-43.411"/>
		<line style="fill:none;stroke:#000000;stroke-width:0.3;" x1="1.706" y1="-40.44" x2="0" y2="-40.44"/>
		<line style="fill:none;stroke:#000000;stroke-width:0.3;" x1="4.287" y1="-40.44" x2="10.655" y2="-40.44"/>
		<line style="fill:none;stroke:#000000;stroke-width:0.3;" x1="19.572" y1="-40.44" x2="13.203" y2="-40.44"/>
		<line style="fill:none;stroke:#000000;stroke-width:0.3;" x1="22.12" y1="-40.44" x2="28.489" y2="-40.44"/>
		<line style="fill:none;stroke:#000000;stroke-width:0.3;" x1="31.036" y1="-40.44" x2="37.405" y2="-40.44"/>
		<line style="fill:none;stroke:#000000;stroke-width:0.3;" x1="39.953" y1="-40.44" x2="46.322" y2="-40.44"/>
		<line style="fill:none;stroke:#000000;stroke-width:0.3;" x1="48.87" y1="-40.44" x2="53.584" y2="-40.44"/>
		<line style="fill:none;stroke:#000000;stroke-width:0.3;" x1="5.242" y1="-37.437" x2="0" y2="-37.437"/>
		<line style="fill:none;stroke:#000000;stroke-width:0.3;" x1="14.159" y1="-37.437" x2="7.79" y2="-37.437"/>
		<line style="fill:none;stroke:#000000;stroke-width:0.3;" x1="23.075" y1="-37.437" x2="16.706" y2="-37.437"/>
		<line style="fill:none;stroke:#000000;stroke-width:0.3;" x1="25.623" y1="-37.437" x2="31.992" y2="-37.437"/>
		<line style="fill:none;stroke:#000000;stroke-width:0.3;" x1="34.539" y1="-37.437" x2="40.908" y2="-37.437"/>
		<line style="fill:none;stroke:#000000;stroke-width:0.3;" x1="43.456" y1="-37.437" x2="49.825" y2="-37.437"/>
		<line style="fill:none;stroke:#000000;stroke-width:0.3;" x1="53.584" y1="-37.437" x2="52.373" y2="-37.437"/>
		<line style="fill:none;stroke:#000000;stroke-width:0.3;" x1="2.184" y1="-34.27" x2="0" y2="-34.27"/>
		<line style="fill:none;stroke:#000000;stroke-width:0.3;" x1="11.134" y1="-34.27" x2="4.765" y2="-34.27"/>
		<line style="fill:none;stroke:#000000;stroke-width:0.3;" x1="13.681" y1="-34.27" x2="20.05" y2="-34.27"/>
		<line style="fill:none;stroke:#000000;stroke-width:0.3;" x1="28.967" y1="-34.27" x2="22.598" y2="-34.27"/>
		<line style="fill:none;stroke:#000000;stroke-width:0.3;" x1="37.883" y1="-34.27" x2="31.515" y2="-34.27"/>
		<line style="fill:none;stroke:#000000;stroke-width:0.3;" x1="46.8" y1="-34.27" x2="40.431" y2="-34.27"/>
		<line style="fill:none;stroke:#000000;stroke-width:0.3;" x1="53.584" y1="-34.27" x2="49.348" y2="-34.27"/>
		<line style="fill:none;stroke:#000000;stroke-width:0.3;" x1="6.675" y1="-31.356" x2="0.306" y2="-31.356"/>
		<line style="fill:none;stroke:#000000;stroke-width:0.3;" x1="15.592" y1="-31.356" x2="9.223" y2="-31.356"/>
		<line style="fill:none;stroke:#000000;stroke-width:0.3;" x1="24.509" y1="-31.356" x2="18.14" y2="-31.356"/>
		<line style="fill:none;stroke:#000000;stroke-width:0.3;" x1="27.056" y1="-31.356" x2="33.425" y2="-31.356"/>
		<line style="fill:none;stroke:#000000;stroke-width:0.3;" x1="35.973" y1="-31.356" x2="42.342" y2="-31.356"/>
		<line style="fill:none;stroke:#000000;stroke-width:0.3;" x1="44.889" y1="-31.356" x2="51.258" y2="-31.356"/>
		<line style="fill:none;stroke:#000000;stroke-width:0.3;" x1="3.458" y1="-28.387" x2="0" y2="-28.387"/>
		<line style="fill:none;stroke:#000000;stroke-width:0.3;" x1="6.038" y1="-28.387" x2="12.407" y2="-28.387"/>
		<line style="fill:none;stroke:#000000;stroke-width:0.3;" x1="21.324" y1="-28.387" x2="14.955" y2="-28.387"/>
		<line style="fill:none;stroke:#000000;stroke-width:0.3;" x1="30.24" y1="-28.387" x2="23.871" y2="-28.387"/>
		<line style="fill:none;stroke:#000000;stroke-width:0.3;" x1="32.788" y1="-28.387" x2="39.157" y2="-28.387"/>
		<line style="fill:none;stroke:#000000;stroke-width:0.3;" x1="41.705" y1="-28.387" x2="48.073" y2="-28.387"/>
		<line style="fill:none;stroke:#000000;stroke-width:0.3;" x1="50.621" y1="-28.387" x2="53.584" y2="-28.387"/>
		<line style="fill:none;stroke:#000000;stroke-width:0.3;" x1="7.949" y1="-25.535" x2="1.58" y2="-25.535"/>
		<line style="fill:none;stroke:#000000;stroke-width:0.3;" x1="16.865" y1="-25.535" x2="10.496" y2="-25.535"/>
		<line style="fill:none;stroke:#000000;stroke-width:0.3;" x1="25.782" y1="-25.535" x2="19.413" y2="-25.535"/>
		<line style="fill:none;stroke:#000000;stroke-width:0.3;" x1="28.33" y1="-25.535" x2="34.698" y2="-25.535"/>
		<line style="fill:none;stroke:#000000;stroke-width:0.3;" x1="43.615" y1="-25.535" x2="37.246" y2="-25.535"/>
		<line style="fill:none;stroke:#000000;stroke-width:0.3;" x1="46.163" y1="-25.535" x2="52.532" y2="-25.535"/>
		<line style="fill:none;stroke:#000000;stroke-width:0.3;" x1="2.98" y1="-22.446" x2="0" y2="-22.446"/>
		<line style="fill:none;stroke:#000000;stroke-width:0.3;" x1="11.93" y1="-22.446" x2="5.561" y2="-22.446"/>
		<line style="fill:none;stroke:#000000;stroke-width:0.3;" x1="14.477" y1="-22.446" x2="20.846" y2="-22.446"/>
		<line style="fill:none;stroke:#000000;stroke-width:0.3;" x1="23.394" y1="-22.446" x2="29.763" y2="-22.446"/>
		<line style="fill:none;stroke:#000000;stroke-width:0.3;" x1="32.311" y1="-22.446" x2="38.68" y2="-22.446"/>
		<line style="fill:none;stroke:#000000;stroke-width:0.3;" x1="41.227" y1="-22.446" x2="47.596" y2="-22.446"/>
		<line style="fill:none;stroke:#000000;stroke-width:0.3;" x1="50.144" y1="-22.446" x2="53.584" y2="-22.446"/>
		<line style="fill:none;stroke:#000000;stroke-width:0.3;" x1="6.834" y1="-19.312" x2="0.465" y2="-19.312"/>
		<line style="fill:none;stroke:#000000;stroke-width:0.3;" x1="15.751" y1="-19.312" x2="9.382" y2="-19.312"/>
		<line style="fill:none;stroke:#000000;stroke-width:0.3;" x1="24.668" y1="-19.312" x2="18.299" y2="-19.312"/>
		<line style="fill:none;stroke:#000000;stroke-width:0.3;" x1="27.215" y1="-19.312" x2="33.584" y2="-19.312"/>
		<line style="fill:none;stroke:#000000;stroke-width:0.3;" x1="42.501" y1="-19.312" x2="36.132" y2="-19.312"/>
		<line style="fill:none;stroke:#000000;stroke-width:0.3;" x1="45.049" y1="-19.312" x2="51.417" y2="-19.312"/>
		<line style="fill:none;stroke:#000000;stroke-width:0.3;" x1="0" y1="-16.342" x2="2.184" y2="-16.342"/>
		<line style="fill:none;stroke:#000000;stroke-width:0.3;" x1="4.765" y1="-16.342" x2="11.134" y2="-16.342"/>
		<line style="fill:none;stroke:#000000;stroke-width:0.3;" x1="20.05" y1="-16.342" x2="13.681" y2="-16.342"/>
		<line style="fill:none;stroke:#000000;stroke-width:0.3;" x1="22.598" y1="-16.342" x2="28.967" y2="-16.342"/>
		<line style="fill:none;stroke:#000000;stroke-width:0.3;" x1="31.515" y1="-16.342" x2="37.883" y2="-16.342"/>
		<line style="fill:none;stroke:#000000;stroke-width:0.3;" x1="40.431" y1="-16.342" x2="46.8" y2="-16.342"/>
		<line style="fill:none;stroke:#000000;stroke-width:0.3;" x1="49.348" y1="-16.342" x2="53.584" y2="-16.342"/>
		<line style="fill:none;stroke:#000000;stroke-width:0.3;" x1="6.038" y1="-13.371" x2="0" y2="-13.371"/>
		<line style="fill:none;stroke:#000000;stroke-width:0.3;" x1="14.955" y1="-13.371" x2="8.586" y2="-13.371"/>
		<line style="fill:none;stroke:#000000;stroke-width:0.3;" x1="23.871" y1="-13.371" x2="17.502" y2="-13.371"/>
		<line style="fill:none;stroke:#000000;stroke-width:0.3;" x1="26.419" y1="-13.371" x2="32.788" y2="-13.371"/>
		<line style="fill:none;stroke:#000000;stroke-width:0.3;" x1="35.336" y1="-13.371" x2="41.705" y2="-13.371"/>
		<line style="fill:none;stroke:#000000;stroke-width:0.3;" x1="44.252" y1="-13.371" x2="50.621" y2="-13.371"/>
		<line style="fill:none;stroke:#000000;stroke-width:0.3;" x1="53.584" y1="-13.371" x2="53.169" y2="-13.371"/>
		<line style="fill:none;stroke:#000000;stroke-width:0.3;" x1="0" y1="-10.575" x2="3.14" y2="-10.575"/>
		<line style="fill:none;stroke:#000000;stroke-width:0.3;" x1="12.089" y1="-10.575" x2="5.72" y2="-10.575"/>
		<line style="fill:none;stroke:#000000;stroke-width:0.3;" x1="14.637" y1="-10.575" x2="21.006" y2="-10.575"/>
		<line style="fill:none;stroke:#000000;stroke-width:0.3;" x1="23.553" y1="-10.575" x2="29.922" y2="-10.575"/>
		<line style="fill:none;stroke:#000000;stroke-width:0.3;" x1="32.47" y1="-10.575" x2="38.839" y2="-10.575"/>
		<line style="fill:none;stroke:#000000;stroke-width:0.3;" x1="47.755" y1="-10.575" x2="41.386" y2="-10.575"/>
		<line style="fill:none;stroke:#000000;stroke-width:0.3;" x1="50.303" y1="-10.575" x2="53.584" y2="-10.575"/>
		<line style="fill:none;stroke:#000000;stroke-width:0.3;" x1="8.268" y1="-7.44" x2="1.898" y2="-7.44"/>
		<line style="fill:none;stroke:#000000;stroke-width:0.3;" x1="17.184" y1="-7.44" x2="10.814" y2="-7.44"/>
		<line style="fill:none;stroke:#000000;stroke-width:0.3;" x1="26.101" y1="-7.44" x2="19.732" y2="-7.44"/>
		<line style="fill:none;stroke:#000000;stroke-width:0.3;" x1="35.018" y1="-7.44" x2="28.648" y2="-7.44"/>
		<line style="fill:none;stroke:#000000;stroke-width:0.3;" x1="37.564" y1="-7.44" x2="43.934" y2="-7.44"/>
		<line style="fill:none;stroke:#000000;stroke-width:0.3;" x1="46.481" y1="-7.44" x2="52.851" y2="-7.44"/>
		<line style="fill:none;stroke:#000000;stroke-width:0.3;" x1="4.732" y1="-4.471" x2="0" y2="-4.471"/>
		<line style="fill:none;stroke:#000000;stroke-width:0.3;" x1="7.312" y1="-4.471" x2="13.681" y2="-4.471"/>
		<line style="fill:none;stroke:#000000;stroke-width:0.3;" x1="16.229" y1="-4.471" x2="22.598" y2="-4.471"/>
		<line style="fill:none;stroke:#000000;stroke-width:0.3;" x1="25.146" y1="-4.471" x2="31.515" y2="-4.471"/>
		<line style="fill:none;stroke:#000000;stroke-width:0.3;" x1="34.062" y1="-4.471" x2="40.431" y2="-4.471"/>
		<line style="fill:none;stroke:#000000;stroke-width:0.3;" x1="42.979" y1="-4.471" x2="49.348" y2="-4.471"/>
		<line style="fill:none;stroke:#000000;stroke-width:0.3;" x1="51.896" y1="-4.471" x2="53.584" y2="-4.471"/>
		<line style="fill:none;stroke:#000000;stroke-width:0.3;" x1="8.586" y1="-1.501" x2="2.217" y2="-1.501"/>
		<line style="fill:none;stroke:#000000;stroke-width:0.3;" x1="17.502" y1="-1.501" x2="11.134" y2="-1.501"/>
		<line style="fill:none;stroke:#000000;stroke-width:0.3;" x1="26.419" y1="-1.501" x2="20.05" y2="-1.501"/>
		<line style="fill:none;stroke:#000000;stroke-width:0.3;" x1="35.336" y1="-1.501" x2="28.967" y2="-1.501"/>
		<line style="fill:none;stroke:#000000;stroke-width:0.3;" x1="44.252" y1="-1.501" x2="37.883" y2="-1.501"/>
		<line style="fill:none;stroke:#000000;stroke-width:0.3;" x1="53.169" y1="-1.501" x2="46.8" y2="-1.501"/>
	</g>
</svg>
